<?xml version="1.0" standalone="no"?>
<!DOCTYPE svg PUBLIC "-//W3C//DTD SVG 1.1//EN" "http://www.w3.org/Graphics/SVG/1.1/DTD/svg11.dtd">
<svg version="1.1" width="1200" height="198" onload="init(evt)" viewBox="0 0 1200 198" xmlns="http://www.w3.org/2000/svg" xmlns:xlink="http://www.w3.org/1999/xlink">
<!-- Flame graph stack visualization. See https://github.com/brendangregg/FlameGraph for latest version, and http://www.brendangregg.com/flamegraphs.html for examples. -->
<!-- NOTES:  -->
<defs>
	<linearGradient id="background" y1="0" y2="1" x1="0" x2="0" >
		<stop stop-color="#eeeeee" offset="5%" />
		<stop stop-color="#eeeeb0" offset="95%" />
	</linearGradient>
</defs>
<style type="text/css">
	text { font-family:Verdana; font-size:12px; fill:rgb(0,0,0); }
	#search, #ignorecase { opacity:0.1; cursor:pointer; }
	#search:hover, #search.show, #ignorecase:hover, #ignorecase.show { opacity:1; }
	#subtitle { text-anchor:middle; font-color:rgb(160,160,160); }
	#title { text-anchor:middle; font-size:17px}
	#unzoom { cursor:pointer; }
	#frames > *:hover { stroke:black; stroke-width:0.5; cursor:pointer; }
	.hide { display:none; }
	.parent { opacity:0.5; }
</style>
<script type="text/ecmascript">
<![CDATA[
	"use strict";
	var details, searchbtn, unzoombtn, matchedtxt, svg, searching, currentSearchTerm, ignorecase, ignorecaseBtn;
	function init(evt) {
		details = document.getElementById("details").firstChild;
		searchbtn = document.getElementById("search");
		ignorecaseBtn = document.getElementById("ignorecase");
		unzoombtn = document.getElementById("unzoom");
		matchedtxt = document.getElementById("matched");
		svg = document.getElementsByTagName("svg")[0];
		searching = 0;
		currentSearchTerm = null;

		// use GET parameters to restore a flamegraphs state.
		var params = get_params();
		if (params.x && params.y)
			zoom(find_group(document.querySelector('[x="' + params.x + '"][y="' + params.y + '"]')));
                if (params.s) search(params.s);
	}

	// event listeners
	window.addEventListener("click", function(e) {
		var target = find_group(e.target);
		if (target) {
			if (target.nodeName == "a") {
				if (e.ctrlKey === false) return;
				e.preventDefault();
			}
			if (target.classList.contains("parent")) unzoom(true);
			zoom(target);
			if (!document.querySelector('.parent')) {
				// we have basically done a clearzoom so clear the url
				var params = get_params();
				if (params.x) delete params.x;
				if (params.y) delete params.y;
				history.replaceState(null, null, parse_params(params));
				unzoombtn.classList.add("hide");
				return;
			}

			// set parameters for zoom state
			var el = target.querySelector("rect");
			if (el && el.attributes && el.attributes.y && el.attributes._orig_x) {
				var params = get_params()
				params.x = el.attributes._orig_x.value;
				params.y = el.attributes.y.value;
				history.replaceState(null, null, parse_params(params));
			}
		}
		else if (e.target.id == "unzoom") clearzoom();
		else if (e.target.id == "search") search_prompt();
		else if (e.target.id == "ignorecase") toggle_ignorecase();
	}, false)

	// mouse-over for info
	// show
	window.addEventListener("mouseover", function(e) {
		var target = find_group(e.target);
		if (target) details.nodeValue = "Function: " + g_to_text(target);
	}, false)

	// clear
	window.addEventListener("mouseout", function(e) {
		var target = find_group(e.target);
		if (target) details.nodeValue = ' ';
	}, false)

	// ctrl-F for search
	// ctrl-I to toggle case-sensitive search
	window.addEventListener("keydown",function (e) {
		if (e.keyCode === 114 || (e.ctrlKey && e.keyCode === 70)) {
			e.preventDefault();
			search_prompt();
		}
		else if (e.ctrlKey && e.keyCode === 73) {
			e.preventDefault();
			toggle_ignorecase();
		}
	}, false)

	// functions
	function get_params() {
		var params = {};
		var paramsarr = window.location.search.substr(1).split('&');
		for (var i = 0; i < paramsarr.length; ++i) {
			var tmp = paramsarr[i].split("=");
			if (!tmp[0] || !tmp[1]) continue;
			params[tmp[0]]  = decodeURIComponent(tmp[1]);
		}
		return params;
	}
	function parse_params(params) {
		var uri = "?";
		for (var key in params) {
			uri += key + '=' + encodeURIComponent(params[key]) + '&';
		}
		if (uri.slice(-1) == "&")
			uri = uri.substring(0, uri.length - 1);
		if (uri == '?')
			uri = window.location.href.split('?')[0];
		return uri;
	}
	function find_child(node, selector) {
		var children = node.querySelectorAll(selector);
		if (children.length) return children[0];
	}
	function find_group(node) {
		var parent = node.parentElement;
		if (!parent) return;
		if (parent.id == "frames") return node;
		return find_group(parent);
	}
	function orig_save(e, attr, val) {
		if (e.attributes["_orig_" + attr] != undefined) return;
		if (e.attributes[attr] == undefined) return;
		if (val == undefined) val = e.attributes[attr].value;
		e.setAttribute("_orig_" + attr, val);
	}
	function orig_load(e, attr) {
		if (e.attributes["_orig_"+attr] == undefined) return;
		e.attributes[attr].value = e.attributes["_orig_" + attr].value;
		e.removeAttribute("_orig_"+attr);
	}
	function g_to_text(e) {
		var text = find_child(e, "title").firstChild.nodeValue;
		return (text)
	}
	function g_to_func(e) {
		var func = g_to_text(e);
		// if there's any manipulation we want to do to the function
		// name before it's searched, do it here before returning.
		return (func);
	}
	function update_text(e) {
		var r = find_child(e, "rect");
		var t = find_child(e, "text");
		var w = parseFloat(r.attributes.width.value) -3;
		var txt = find_child(e, "title").textContent.replace(/\([^(]*\)$/,"");
		t.attributes.x.value = parseFloat(r.attributes.x.value) + 3;

		// Smaller than this size won't fit anything
		if (w < 2 * 12 * 0.59) {
			t.textContent = "";
			return;
		}

		t.textContent = txt;
		var sl = t.getSubStringLength(0, txt.length);
		// check if only whitespace or if we can fit the entire string into width w
		if (/^ *$/.test(txt) || sl < w)
			return;

		// this isn't perfect, but gives a good starting point
		// and avoids calling getSubStringLength too often
		var start = Math.floor((w/sl) * txt.length);
		for (var x = start; x > 0; x = x-2) {
			if (t.getSubStringLength(0, x + 2) <= w) {
				t.textContent = txt.substring(0, x) + "..";
				return;
			}
		}
		t.textContent = "";
	}

	// zoom
	function zoom_reset(e) {
		if (e.attributes != undefined) {
			orig_load(e, "x");
			orig_load(e, "width");
		}
		if (e.childNodes == undefined) return;
		for (var i = 0, c = e.childNodes; i < c.length; i++) {
			zoom_reset(c[i]);
		}
	}
	function zoom_child(e, x, ratio) {
		if (e.attributes != undefined) {
			if (e.attributes.x != undefined) {
				orig_save(e, "x");
				e.attributes.x.value = (parseFloat(e.attributes.x.value) - x - 10) * ratio + 10;
				if (e.tagName == "text")
					e.attributes.x.value = find_child(e.parentNode, "rect[x]").attributes.x.value + 3;
			}
			if (e.attributes.width != undefined) {
				orig_save(e, "width");
				e.attributes.width.value = parseFloat(e.attributes.width.value) * ratio;
			}
		}

		if (e.childNodes == undefined) return;
		for (var i = 0, c = e.childNodes; i < c.length; i++) {
			zoom_child(c[i], x - 10, ratio);
		}
	}
	function zoom_parent(e) {
		if (e.attributes) {
			if (e.attributes.x != undefined) {
				orig_save(e, "x");
				e.attributes.x.value = 10;
			}
			if (e.attributes.width != undefined) {
				orig_save(e, "width");
				e.attributes.width.value = parseInt(svg.width.baseVal.value) - (10 * 2);
			}
		}
		if (e.childNodes == undefined) return;
		for (var i = 0, c = e.childNodes; i < c.length; i++) {
			zoom_parent(c[i]);
		}
	}
	function zoom(node) {
		var attr = find_child(node, "rect").attributes;
		var width = parseFloat(attr.width.value);
		var xmin = parseFloat(attr.x.value);
		var xmax = parseFloat(xmin + width);
		var ymin = parseFloat(attr.y.value);
		var ratio = (svg.width.baseVal.value - 2 * 10) / width;

		// XXX: Workaround for JavaScript float issues (fix me)
		var fudge = 0.0001;

		unzoombtn.classList.remove("hide");

		var el = document.getElementById("frames").children;
		for (var i = 0; i < el.length; i++) {
			var e = el[i];
			var a = find_child(e, "rect").attributes;
			var ex = parseFloat(a.x.value);
			var ew = parseFloat(a.width.value);
			var upstack;
			// Is it an ancestor
			if (0 == 0) {
				upstack = parseFloat(a.y.value) > ymin;
			} else {
				upstack = parseFloat(a.y.value) < ymin;
			}
			if (upstack) {
				// Direct ancestor
				if (ex <= xmin && (ex+ew+fudge) >= xmax) {
					e.classList.add("parent");
					zoom_parent(e);
					update_text(e);
				}
				// not in current path
				else
					e.classList.add("hide");
			}
			// Children maybe
			else {
				// no common path
				if (ex < xmin || ex + fudge >= xmax) {
					e.classList.add("hide");
				}
				else {
					zoom_child(e, xmin, ratio);
					update_text(e);
				}
			}
		}
		search();
	}
	function unzoom(dont_update_text) {
		unzoombtn.classList.add("hide");
		var el = document.getElementById("frames").children;
		for(var i = 0; i < el.length; i++) {
			el[i].classList.remove("parent");
			el[i].classList.remove("hide");
			zoom_reset(el[i]);
			if(!dont_update_text) update_text(el[i]);
		}
		search();
	}
	function clearzoom() {
		unzoom();

		// remove zoom state
		var params = get_params();
		if (params.x) delete params.x;
		if (params.y) delete params.y;
		history.replaceState(null, null, parse_params(params));
	}

	// search
	function toggle_ignorecase() {
		ignorecase = !ignorecase;
		if (ignorecase) {
			ignorecaseBtn.classList.add("show");
		} else {
			ignorecaseBtn.classList.remove("show");
		}
		reset_search();
		search();
	}
	function reset_search() {
		var el = document.querySelectorAll("#frames rect");
		for (var i = 0; i < el.length; i++) {
			orig_load(el[i], "fill")
		}
		var params = get_params();
		delete params.s;
		history.replaceState(null, null, parse_params(params));
	}
	function search_prompt() {
		if (!searching) {
			var term = prompt("Enter a search term (regexp " +
			    "allowed, eg: ^ext4_)"
			    + (ignorecase ? ", ignoring case" : "")
			    + "\nPress Ctrl-i to toggle case sensitivity", "");
			if (term != null) search(term);
		} else {
			reset_search();
			searching = 0;
			currentSearchTerm = null;
			searchbtn.classList.remove("show");
			searchbtn.firstChild.nodeValue = "Search"
			matchedtxt.classList.add("hide");
			matchedtxt.firstChild.nodeValue = ""
		}
	}
	function search(term) {
		if (term) currentSearchTerm = term;
		if (currentSearchTerm === null) return;

		var re = new RegExp(currentSearchTerm, ignorecase ? 'i' : '');
		var el = document.getElementById("frames").children;
		var matches = new Object();
		var maxwidth = 0;
		for (var i = 0; i < el.length; i++) {
			var e = el[i];
			var func = g_to_func(e);
			var rect = find_child(e, "rect");
			if (func == null || rect == null)
				continue;

			// Save max width. Only works as we have a root frame
			var w = parseFloat(rect.attributes.width.value);
			if (w > maxwidth)
				maxwidth = w;

			if (func.match(re)) {
				// highlight
				var x = parseFloat(rect.attributes.x.value);
				orig_save(rect, "fill");
				rect.attributes.fill.value = "rgb(230,0,230)";

				// remember matches
				if (matches[x] == undefined) {
					matches[x] = w;
				} else {
					if (w > matches[x]) {
						// overwrite with parent
						matches[x] = w;
					}
				}
				searching = 1;
			}
		}
		if (!searching)
			return;
		var params = get_params();
		params.s = currentSearchTerm;
		history.replaceState(null, null, parse_params(params));

		searchbtn.classList.add("show");
		searchbtn.firstChild.nodeValue = "Reset Search";

		// calculate percent matched, excluding vertical overlap
		var count = 0;
		var lastx = -1;
		var lastw = 0;
		var keys = Array();
		for (k in matches) {
			if (matches.hasOwnProperty(k))
				keys.push(k);
		}
		// sort the matched frames by their x location
		// ascending, then width descending
		keys.sort(function(a, b){
			return a - b;
		});
		// Step through frames saving only the biggest bottom-up frames
		// thanks to the sort order. This relies on the tree property
		// where children are always smaller than their parents.
		var fudge = 0.0001;	// JavaScript floating point
		for (var k in keys) {
			var x = parseFloat(keys[k]);
			var w = matches[keys[k]];
			if (x >= lastx + lastw - fudge) {
				count += w;
				lastx = x;
				lastw = w;
			}
		}
		// display matched percent
		matchedtxt.classList.remove("hide");
		var pct = 100 * count / maxwidth;
		if (pct != 100) pct = pct.toFixed(1)
		matchedtxt.firstChild.nodeValue = "Matched: " + pct + "%";
	}
]]>
</script>
<rect x="0.0" y="0" width="1200.0" height="198.0" fill="url(#background)"  />
<text id="title" x="600.00" y="24" >Flame Graph</text>
<text id="details" x="10.00" y="181" > </text>
<text id="unzoom" x="10.00" y="24" class="hide">Reset Zoom</text>
<text id="search" x="1090.00" y="24" >Search</text>
<text id="ignorecase" x="1174.00" y="24" >ic</text>
<text id="matched" x="1090.00" y="181" > </text>
<g id="frames">
<g >
<title>@   33:   53 LOOP (1 samples, 0.88%)</title><rect x="135.3" y="69" width="10.5" height="15.0" fill="rgb(229,92,92)" rx="2" ry="2" />
<text  x="138.31" y="79.5" ></text>
</g>
<g >
<title>@   77:    9 MOVE_PTR (1 samples, 0.88%)</title><rect x="688.8" y="37" width="10.4" height="15.0" fill="rgb(229,92,92)" rx="2" ry="2" />
<text  x="691.76" y="47.5" ></text>
</g>
<g >
<title>@   44:    9 LOOP (2 samples, 1.77%)</title><rect x="417.3" y="69" width="20.8" height="15.0" fill="rgb(229,92,92)" rx="2" ry="2" />
<text  x="420.26" y="79.5" ></text>
</g>
<g >
<title>@   30:   65 LOOP (3 samples, 2.65%)</title><rect x="51.8" y="85" width="31.3" height="15.0" fill="rgb(229,92,92)" rx="2" ry="2" />
<text  x="54.77" y="95.5" >@ ..</text>
</g>
<g >
<title>@   66:   45 MOVE_PTR (2 samples, 1.77%)</title><rect x="626.1" y="53" width="20.9" height="15.0" fill="rgb(229,92,92)" rx="2" ry="2" />
<text  x="629.11" y="63.5" ></text>
</g>
<g >
<title>@  107:   72 LOOP (2 samples, 1.77%)</title><rect x="1169.1" y="69" width="20.9" height="15.0" fill="rgb(229,92,92)" rx="2" ry="2" />
<text  x="1172.12" y="79.5" ></text>
</g>
<g >
<title>@  104:   39 MOVE_PTR (6 samples, 5.31%)</title><rect x="1054.2" y="53" width="62.7" height="15.0" fill="rgb(229,92,92)" rx="2" ry="2" />
<text  x="1057.25" y="63.5" >@  104..</text>
</g>
<g >
<title>@   96:   77 MOVE_PTR (2 samples, 1.77%)</title><rect x="730.5" y="53" width="20.9" height="15.0" fill="rgb(229,92,92)" rx="2" ry="2" />
<text  x="733.53" y="63.5" ></text>
</g>
<g >
<title>@   66:   39 COPY_CELL (1 samples, 0.88%)</title><rect x="615.7" y="53" width="10.4" height="15.0" fill="rgb(229,92,92)" rx="2" ry="2" />
<text  x="618.66" y="63.5" ></text>
</g>
<g >
<title>@   14:   61 MOVE_PTR (1 samples, 0.88%)</title><rect x="20.4" y="85" width="10.5" height="15.0" fill="rgb(229,92,92)" rx="2" ry="2" />
<text  x="23.44" y="95.5" ></text>
</g>
<g >
<title>@   18:   18 LOOP (1 samples, 0.88%)</title><rect x="30.9" y="85" width="10.4" height="15.0" fill="rgb(229,92,92)" rx="2" ry="2" />
<text  x="33.88" y="95.5" ></text>
</g>
<g >
<title>@  107:   71 LOOP (2 samples, 1.77%)</title><rect x="1169.1" y="85" width="20.9" height="15.0" fill="rgb(229,92,92)" rx="2" ry="2" />
<text  x="1172.12" y="95.5" ></text>
</g>
<g >
<title>@   44:   40 MOVE_PTR (5 samples, 4.42%)</title><rect x="438.1" y="53" width="52.3" height="15.0" fill="rgb(229,92,92)" rx="2" ry="2" />
<text  x="441.14" y="63.5" >@   4..</text>
</g>
<g >
<title>@   38:   60 MOVE_PTR (1 samples, 0.88%)</title><rect x="323.3" y="53" width="10.4" height="15.0" fill="rgb(229,92,92)" rx="2" ry="2" />
<text  x="326.27" y="63.5" ></text>
</g>
<g >
<title>@   40:   47 MOVE_PTR (2 samples, 1.77%)</title><rect x="385.9" y="69" width="20.9" height="15.0" fill="rgb(229,92,92)" rx="2" ry="2" />
<text  x="388.93" y="79.5" ></text>
</g>
<g >
<title>@   31:   44 MOVE_PTR (1 samples, 0.88%)</title><rect x="72.7" y="53" width="10.4" height="15.0" fill="rgb(229,92,92)" rx="2" ry="2" />
<text  x="75.65" y="63.5" ></text>
</g>
<g >
<title>@   18:   43 MOVE_PTR (1 samples, 0.88%)</title><rect x="30.9" y="69" width="10.4" height="15.0" fill="rgb(229,92,92)" rx="2" ry="2" />
<text  x="33.88" y="79.5" ></text>
</g>
<g >
<title>@  105:   16 LOOP (5 samples, 4.42%)</title><rect x="1116.9" y="85" width="52.2" height="15.0" fill="rgb(229,92,92)" rx="2" ry="2" />
<text  x="1119.90" y="95.5" >@  10..</text>
</g>
<g >
<title>@  101:   42 MOVE_PTR (1 samples, 0.88%)</title><rect x="897.6" y="53" width="10.5" height="15.0" fill="rgb(229,92,92)" rx="2" ry="2" />
<text  x="900.61" y="63.5" ></text>
</g>
<g >
<title>@   32:   54 LOOP (5 samples, 4.42%)</title><rect x="83.1" y="69" width="52.2" height="15.0" fill="rgb(229,92,92)" rx="2" ry="2" />
<text  x="86.10" y="79.5" >@   3..</text>
</g>
<g >
<title>@   69:   16 MOVE_PTR (1 samples, 0.88%)</title><rect x="678.3" y="69" width="10.5" height="15.0" fill="rgb(229,92,92)" rx="2" ry="2" />
<text  x="681.32" y="79.5" ></text>
</g>
<g >
<title>@   42:   37 LOOP (1 samples, 0.88%)</title><rect x="406.8" y="85" width="10.5" height="15.0" fill="rgb(229,92,92)" rx="2" ry="2" />
<text  x="409.81" y="95.5" ></text>
</g>
<g >
<title>@   32:   55 ADD_VAL (1 samples, 0.88%)</title><rect x="83.1" y="53" width="10.4" height="15.0" fill="rgb(229,92,92)" rx="2" ry="2" />
<text  x="86.10" y="63.5" ></text>
</g>
<g >
<title>@   91:    8 LOOP (1 samples, 0.88%)</title><rect x="709.6" y="85" width="10.5" height="15.0" fill="rgb(229,92,92)" rx="2" ry="2" />
<text  x="712.65" y="95.5" ></text>
</g>
<g >
<title>@   28:   23 LOOP (1 samples, 0.88%)</title><rect x="41.3" y="85" width="10.5" height="15.0" fill="rgb(229,92,92)" rx="2" ry="2" />
<text  x="44.33" y="95.5" ></text>
</g>
<g >
<title>@  103:    3 LOOP (2 samples, 1.77%)</title><rect x="970.7" y="53" width="20.9" height="15.0" fill="rgb(229,92,92)" rx="2" ry="2" />
<text  x="973.71" y="63.5" ></text>
</g>
<g >
<title>@   33:   73 LOOP (8 samples, 7.08%)</title><rect x="145.8" y="69" width="83.5" height="15.0" fill="rgb(229,92,92)" rx="2" ry="2" />
<text  x="148.75" y="79.5" >@   33:  ..</text>
</g>
<g >
<title>@   64:   62 LOOP (2 samples, 1.77%)</title><rect x="542.6" y="69" width="20.9" height="15.0" fill="rgb(229,92,92)" rx="2" ry="2" />
<text  x="545.57" y="79.5" ></text>
</g>
<g >
<title>@  105:   28 ADD_VAL (1 samples, 0.88%)</title><rect x="1116.9" y="53" width="10.4" height="15.0" fill="rgb(229,92,92)" rx="2" ry="2" />
<text  x="1119.90" y="63.5" ></text>
</g>
<g >
<title>@   40:   42 MOVE_PTR (1 samples, 0.88%)</title><rect x="375.5" y="53" width="10.4" height="15.0" fill="rgb(229,92,92)" rx="2" ry="2" />
<text  x="378.49" y="63.5" ></text>
</g>
<g >
<title>@   35:   40 MOVE_PTR (1 samples, 0.88%)</title><rect x="281.5" y="69" width="10.4" height="15.0" fill="rgb(229,92,92)" rx="2" ry="2" />
<text  x="284.50" y="79.5" ></text>
</g>
<g >
<title>@  104:   14 LOOP (7 samples, 6.19%)</title><rect x="1043.8" y="69" width="73.1" height="15.0" fill="rgb(229,92,92)" rx="2" ry="2" />
<text  x="1046.81" y="79.5" >@  104: ..</text>
</g>
<g >
<title>@  101:   60 MOVE_PTR (1 samples, 0.88%)</title><rect x="949.8" y="69" width="10.5" height="15.0" fill="rgb(229,92,92)" rx="2" ry="2" />
<text  x="952.82" y="79.5" ></text>
</g>
<g >
<title>@   63:   65 LOOP (3 samples, 2.65%)</title><rect x="511.2" y="69" width="31.4" height="15.0" fill="rgb(229,92,92)" rx="2" ry="2" />
<text  x="514.24" y="79.5" >@ ..</text>
</g>
<g >
<title>@   35:   30 COPY_CELL (1 samples, 0.88%)</title><rect x="260.6" y="53" width="10.5" height="15.0" fill="rgb(229,92,92)" rx="2" ry="2" />
<text  x="263.62" y="63.5" ></text>
</g>
<g >
<title>@  105:   35 MUL (2 samples, 1.77%)</title><rect x="1127.3" y="53" width="20.9" height="15.0" fill="rgb(229,92,92)" rx="2" ry="2" />
<text  x="1130.35" y="63.5" ></text>
</g>
<g >
<title>@   33:   54 MOVE_PTR (1 samples, 0.88%)</title><rect x="135.3" y="53" width="10.5" height="15.0" fill="rgb(229,92,92)" rx="2" ry="2" />
<text  x="138.31" y="63.5" ></text>
</g>
<g >
<title>@   63:   42 LOOP (10 samples, 8.85%)</title><rect x="511.2" y="85" width="104.5" height="15.0" fill="rgb(229,92,92)" rx="2" ry="2" />
<text  x="514.24" y="95.5" >@   63:   42..</text>
</g>
<g >
<title>@   32:   68 LOOP (4 samples, 3.54%)</title><rect x="93.5" y="53" width="41.8" height="15.0" fill="rgb(229,92,92)" rx="2" ry="2" />
<text  x="96.54" y="63.5" >@  ..</text>
</g>
<g >
<title>@   97:   77 MOVE_PTR (1 samples, 0.88%)</title><rect x="751.4" y="69" width="10.5" height="15.0" fill="rgb(229,92,92)" rx="2" ry="2" />
<text  x="754.42" y="79.5" ></text>
</g>
<g >
<title>@   69:    6 MOVE_PTR (2 samples, 1.77%)</title><rect x="657.4" y="53" width="20.9" height="15.0" fill="rgb(229,92,92)" rx="2" ry="2" />
<text  x="660.43" y="63.5" ></text>
</g>
<g >
<title>@   30:   66 LOOP (2 samples, 1.77%)</title><rect x="51.8" y="69" width="20.9" height="15.0" fill="rgb(229,92,92)" rx="2" ry="2" />
<text  x="54.77" y="79.5" ></text>
</g>
<g >
<title>@   61:   80 LOOP (1 samples, 0.88%)</title><rect x="500.8" y="85" width="10.4" height="15.0" fill="rgb(229,92,92)" rx="2" ry="2" />
<text  x="503.80" y="95.5" ></text>
</g>
<g >
<title>@   65:    2 LOOP (5 samples, 4.42%)</title><rect x="563.5" y="69" width="52.2" height="15.0" fill="rgb(229,92,92)" rx="2" ry="2" />
<text  x="566.45" y="79.5" >@   6..</text>
</g>
<g >
<title>@  102:    2 MOVE_PTR (1 samples, 0.88%)</title><rect x="960.3" y="69" width="10.4" height="15.0" fill="rgb(229,92,92)" rx="2" ry="2" />
<text  x="963.27" y="79.5" ></text>
</g>
<g >
<title>@   64:   63 MOVE_PTR (2 samples, 1.77%)</title><rect x="542.6" y="53" width="20.9" height="15.0" fill="rgb(229,92,92)" rx="2" ry="2" />
<text  x="545.57" y="63.5" ></text>
</g>
<g >
<title>@   33:   14 MOVE_PTR (2 samples, 1.77%)</title><rect x="114.4" y="37" width="20.9" height="15.0" fill="rgb(229,92,92)" rx="2" ry="2" />
<text  x="117.42" y="47.5" ></text>
</g>
<g >
<title>@  101:   36 COPY_CELL (1 samples, 0.88%)</title><rect x="887.2" y="53" width="10.4" height="15.0" fill="rgb(229,92,92)" rx="2" ry="2" />
<text  x="890.17" y="63.5" ></text>
</g>
<g >
<title>@   98:   37 LOOP (12 samples, 10.62%)</title><rect x="761.9" y="85" width="125.3" height="15.0" fill="rgb(229,92,92)" rx="2" ry="2" />
<text  x="764.86" y="95.5" >@   98:   37 LOOP</text>
</g>
<g >
<title>@   38:   79 LOOP (2 samples, 1.77%)</title><rect x="333.7" y="69" width="20.9" height="15.0" fill="rgb(229,92,92)" rx="2" ry="2" />
<text  x="336.72" y="79.5" ></text>
</g>
<g >
<title>@   46:   16 LOOP (1 samples, 0.88%)</title><rect x="490.4" y="85" width="10.4" height="15.0" fill="rgb(229,92,92)" rx="2" ry="2" />
<text  x="493.35" y="95.5" ></text>
</g>
<g >
<title>@   31:   43 LOOP (1 samples, 0.88%)</title><rect x="72.7" y="69" width="10.4" height="15.0" fill="rgb(229,92,92)" rx="2" ry="2" />
<text  x="75.65" y="79.5" ></text>
</g>
<g >
<title>@   68:   55 LOOP (1 samples, 0.88%)</title><rect x="647.0" y="69" width="10.4" height="15.0" fill="rgb(229,92,92)" rx="2" ry="2" />
<text  x="649.99" y="79.5" ></text>
</g>
<g >
<title>@    5:   38 LOOP (113 samples, 100.00%)</title><rect x="10.0" y="133" width="1180.0" height="15.0" fill="rgb(229,92,92)" rx="2" ry="2" />
<text  x="13.00" y="143.5" >@    5:   38 LOOP</text>
</g>
<g >
<title>@   68:   54 LOOP (4 samples, 3.54%)</title><rect x="647.0" y="85" width="41.8" height="15.0" fill="rgb(229,92,92)" rx="2" ry="2" />
<text  x="649.99" y="95.5" >@  ..</text>
</g>
<g >
<title>@   63:   77 LOOP (3 samples, 2.65%)</title><rect x="511.2" y="53" width="31.4" height="15.0" fill="rgb(229,92,92)" rx="2" ry="2" />
<text  x="514.24" y="63.5" >@ ..</text>
</g>
<g >
<title>@   96:   76 LOOP (2 samples, 1.77%)</title><rect x="730.5" y="69" width="20.9" height="15.0" fill="rgb(229,92,92)" rx="2" ry="2" />
<text  x="733.53" y="79.5" ></text>
</g>
<g >
<title>@   30:   67 MOVE_PTR (2 samples, 1.77%)</title><rect x="51.8" y="53" width="20.9" height="15.0" fill="rgb(229,92,92)" rx="2" ry="2" />
<text  x="54.77" y="63.5" ></text>
</g>
<g >
<title>@  104:   17 COPY_CELL (1 samples, 0.88%)</title><rect x="1043.8" y="53" width="10.4" height="15.0" fill="rgb(229,92,92)" rx="2" ry="2" />
<text  x="1046.81" y="63.5" ></text>
</g>
<g >
<title>@  100:    1 COPY_CELL (1 samples, 0.88%)</title><rect x="803.6" y="53" width="10.5" height="15.0" fill="rgb(229,92,92)" rx="2" ry="2" />
<text  x="806.63" y="63.5" ></text>
</g>
<g >
<title>@   95:   61 LOOP (1 samples, 0.88%)</title><rect x="720.1" y="85" width="10.4" height="15.0" fill="rgb(229,92,92)" rx="2" ry="2" />
<text  x="723.09" y="95.5" ></text>
</g>
<g >
<title>@   98:   60 LOOP (2 samples, 1.77%)</title><rect x="761.9" y="69" width="20.8" height="15.0" fill="rgb(229,92,92)" rx="2" ry="2" />
<text  x="764.86" y="79.5" ></text>
</g>
<g >
<title>@  103:   74 LOOP (5 samples, 4.42%)</title><rect x="991.6" y="69" width="52.2" height="15.0" fill="rgb(229,92,92)" rx="2" ry="2" />
<text  x="994.59" y="79.5" >@  10..</text>
</g>
<g >
<title>@   37:   58 LOOP (2 samples, 1.77%)</title><rect x="302.4" y="69" width="20.9" height="15.0" fill="rgb(229,92,92)" rx="2" ry="2" />
<text  x="305.39" y="79.5" ></text>
</g>
<g >
<title>@   99:   39 MOVE_PTR (2 samples, 1.77%)</title><rect x="761.9" y="37" width="20.8" height="15.0" fill="rgb(229,92,92)" rx="2" ry="2" />
<text  x="764.86" y="47.5" ></text>
</g>
<g >
<title>@   38:   59 LOOP (1 samples, 0.88%)</title><rect x="323.3" y="69" width="10.4" height="15.0" fill="rgb(229,92,92)" rx="2" ry="2" />
<text  x="326.27" y="79.5" ></text>
</g>
<g >
<title>@  102:   69 LOOP (2 samples, 1.77%)</title><rect x="970.7" y="69" width="20.9" height="15.0" fill="rgb(229,92,92)" rx="2" ry="2" />
<text  x="973.71" y="79.5" ></text>
</g>
<g >
<title>@  105:   27 LOOP (3 samples, 2.65%)</title><rect x="1116.9" y="69" width="31.3" height="15.0" fill="rgb(229,92,92)" rx="2" ry="2" />
<text  x="1119.90" y="79.5" >@ ..</text>
</g>
<g >
<title>@   99:   59 LOOP (2 samples, 1.77%)</title><rect x="782.7" y="69" width="20.9" height="15.0" fill="rgb(229,92,92)" rx="2" ry="2" />
<text  x="785.74" y="79.5" ></text>
</g>
<g >
<title>@   35:    1 LOOP (4 samples, 3.54%)</title><rect x="239.7" y="69" width="41.8" height="15.0" fill="rgb(229,92,92)" rx="2" ry="2" />
<text  x="242.73" y="79.5" >@  ..</text>
</g>
<g >
<title>@  100:   23 MOVE_PTR (5 samples, 4.42%)</title><rect x="814.1" y="53" width="52.2" height="15.0" fill="rgb(229,92,92)" rx="2" ry="2" />
<text  x="817.07" y="63.5" >@  10..</text>
</g>
<g >
<title>@   28:   37 MOVE_PTR (1 samples, 0.88%)</title><rect x="41.3" y="69" width="10.5" height="15.0" fill="rgb(229,92,92)" rx="2" ry="2" />
<text  x="44.33" y="79.5" ></text>
</g>
<g >
<title>@   35:   62 MOVE_PTR (1 samples, 0.88%)</title><rect x="291.9" y="85" width="10.5" height="15.0" fill="rgb(229,92,92)" rx="2" ry="2" />
<text  x="294.95" y="95.5" ></text>
</g>
<g >
<title>@   92:   14 LOOP (1 samples, 0.88%)</title><rect x="709.6" y="69" width="10.5" height="15.0" fill="rgb(229,92,92)" rx="2" ry="2" />
<text  x="712.65" y="79.5" ></text>
</g>
<g >
<title>@   68:   56 MOVE_PTR (1 samples, 0.88%)</title><rect x="647.0" y="53" width="10.4" height="15.0" fill="rgb(229,92,92)" rx="2" ry="2" />
<text  x="649.99" y="63.5" ></text>
</g>
<g >
<title>@   39:   23 MOVE_PTR (2 samples, 1.77%)</title><rect x="333.7" y="53" width="20.9" height="15.0" fill="rgb(229,92,92)" rx="2" ry="2" />
<text  x="336.72" y="63.5" ></text>
</g>
<g >
<title>@   35:   36 MOVE_PTR (1 samples, 0.88%)</title><rect x="271.1" y="53" width="10.4" height="15.0" fill="rgb(229,92,92)" rx="2" ry="2" />
<text  x="274.06" y="63.5" ></text>
</g>
<g >
<title>@  102:    1 LOOP (1 samples, 0.88%)</title><rect x="960.3" y="85" width="10.4" height="15.0" fill="rgb(229,92,92)" rx="2" ry="2" />
<text  x="963.27" y="95.5" ></text>
</g>
<g >
<title>@   40:   16 MUL (1 samples, 0.88%)</title><rect x="365.0" y="53" width="10.5" height="15.0" fill="rgb(229,92,92)" rx="2" ry="2" />
<text  x="368.04" y="63.5" ></text>
</g>
<g >
<title>@   27:   43 LOOP (110 samples, 97.35%)</title><rect x="41.3" y="101" width="1148.7" height="15.0" fill="rgb(229,92,92)" rx="2" ry="2" />
<text  x="44.33" y="111.5" >@   27:   43 LOOP</text>
</g>
<g >
<title>@   39:   77 LOOP (5 samples, 4.42%)</title><rect x="354.6" y="85" width="52.2" height="15.0" fill="rgb(229,92,92)" rx="2" ry="2" />
<text  x="357.60" y="95.5" >@   3..</text>
</g>
<g >
<title>@   40:    9 ADD_VAL (1 samples, 0.88%)</title><rect x="354.6" y="53" width="10.4" height="15.0" fill="rgb(229,92,92)" rx="2" ry="2" />
<text  x="357.60" y="63.5" ></text>
</g>
<g >
<title>@   44:   10 MOVE_PTR (2 samples, 1.77%)</title><rect x="417.3" y="53" width="20.8" height="15.0" fill="rgb(229,92,92)" rx="2" ry="2" />
<text  x="420.26" y="63.5" ></text>
</g>
<g >
<title>@   44:   39 LOOP (5 samples, 4.42%)</title><rect x="438.1" y="69" width="52.3" height="15.0" fill="rgb(229,92,92)" rx="2" ry="2" />
<text  x="441.14" y="79.5" >@   4..</text>
</g>
<g >
<title>@  103:   35 MOVE_PTR (1 samples, 0.88%)</title><rect x="981.2" y="37" width="10.4" height="15.0" fill="rgb(229,92,92)" rx="2" ry="2" />
<text  x="984.15" y="47.5" ></text>
</g>
<g >
<title>@   76:   18 LOOP (1 samples, 0.88%)</title><rect x="688.8" y="69" width="10.4" height="15.0" fill="rgb(229,92,92)" rx="2" ry="2" />
<text  x="691.76" y="79.5" ></text>
</g>
<g >
<title>@   40:    8 LOOP (3 samples, 2.65%)</title><rect x="354.6" y="69" width="31.3" height="15.0" fill="rgb(229,92,92)" rx="2" ry="2" />
<text  x="357.60" y="79.5" >@ ..</text>
</g>
<g >
<title>@   65:   26 MOVE_PTR (5 samples, 4.42%)</title><rect x="563.5" y="53" width="52.2" height="15.0" fill="rgb(229,92,92)" rx="2" ry="2" />
<text  x="566.45" y="63.5" >@   6..</text>
</g>
<g >
<title>@   97:   76 LOOP (1 samples, 0.88%)</title><rect x="751.4" y="85" width="10.5" height="15.0" fill="rgb(229,92,92)" rx="2" ry="2" />
<text  x="754.42" y="95.5" ></text>
</g>
<g >
<title>@  107:   73 MOVE_PTR (2 samples, 1.77%)</title><rect x="1169.1" y="53" width="20.9" height="15.0" fill="rgb(229,92,92)" rx="2" ry="2" />
<text  x="1172.12" y="63.5" ></text>
</g>
<g >
<title>@   66:   10 LOOP (3 samples, 2.65%)</title><rect x="615.7" y="69" width="31.3" height="15.0" fill="rgb(229,92,92)" rx="2" ry="2" />
<text  x="618.66" y="79.5" >@ ..</text>
</g>
<g >
<title>@   16:   46 LOOP (1 samples, 0.88%)</title><rect x="30.9" y="101" width="10.4" height="15.0" fill="rgb(229,92,92)" rx="2" ry="2" />
<text  x="33.88" y="111.5" ></text>
</g>
<g >
<title>@   46:   17 MOVE_PTR (1 samples, 0.88%)</title><rect x="490.4" y="69" width="10.4" height="15.0" fill="rgb(229,92,92)" rx="2" ry="2" />
<text  x="493.35" y="79.5" ></text>
</g>
<g >
<title>@   43:   37 MOVE_PTR (1 samples, 0.88%)</title><rect x="406.8" y="69" width="10.5" height="15.0" fill="rgb(229,92,92)" rx="2" ry="2" />
<text  x="409.81" y="79.5" ></text>
</g>
<g >
<title>@   38:   20 MOVE_PTR (2 samples, 1.77%)</title><rect x="302.4" y="37" width="20.9" height="15.0" fill="rgb(229,92,92)" rx="2" ry="2" />
<text  x="305.39" y="47.5" ></text>
</g>
<g >
<title>@  100:   57 MOVE_PTR (2 samples, 1.77%)</title><rect x="866.3" y="69" width="20.9" height="15.0" fill="rgb(229,92,92)" rx="2" ry="2" />
<text  x="869.28" y="79.5" ></text>
</g>
<g >
<title>@   99:   79 LOOP (6 samples, 5.31%)</title><rect x="803.6" y="69" width="62.7" height="15.0" fill="rgb(229,92,92)" rx="2" ry="2" />
<text  x="806.63" y="79.5" >@   99..</text>
</g>
<g >
<title>@    8:   43 MOVE_PTR (1 samples, 0.88%)</title><rect x="10.0" y="85" width="10.4" height="15.0" fill="rgb(229,92,92)" rx="2" ry="2" />
<text  x="13.00" y="95.5" ></text>
</g>
<g >
<title>@   99:   60 MOVE_PTR (2 samples, 1.77%)</title><rect x="782.7" y="53" width="20.9" height="15.0" fill="rgb(229,92,92)" rx="2" ry="2" />
<text  x="785.74" y="63.5" ></text>
</g>
<g >
<title>@   65:   80 LOOP (3 samples, 2.65%)</title><rect x="615.7" y="85" width="31.3" height="15.0" fill="rgb(229,92,92)" rx="2" ry="2" />
<text  x="618.66" y="95.5" >@ ..</text>
</g>
<g >
<title>@   96:    7 COPY_CELL (1 samples, 0.88%)</title><rect x="720.1" y="69" width="10.4" height="15.0" fill="rgb(229,92,92)" rx="2" ry="2" />
<text  x="723.09" y="79.5" ></text>
</g>
<g >
<title>@  101:   47 MOVE_PTR (4 samples, 3.54%)</title><rect x="908.1" y="69" width="41.7" height="15.0" fill="rgb(229,92,92)" rx="2" ry="2" />
<text  x="911.05" y="79.5" >@  ..</text>
</g>
<g >
<title>@  105:   66 MOVE_PTR (2 samples, 1.77%)</title><rect x="1148.2" y="69" width="20.9" height="15.0" fill="rgb(229,92,92)" rx="2" ry="2" />
<text  x="1151.23" y="79.5" ></text>
</g>
<g >
<title>@   35:    2 ADD_VAL (2 samples, 1.77%)</title><rect x="239.7" y="53" width="20.9" height="15.0" fill="rgb(229,92,92)" rx="2" ry="2" />
<text  x="242.73" y="63.5" ></text>
</g>
<g >
<title>@  103:   75 MOVE_PTR (5 samples, 4.42%)</title><rect x="991.6" y="53" width="52.2" height="15.0" fill="rgb(229,92,92)" rx="2" ry="2" />
<text  x="994.59" y="63.5" >@  10..</text>
</g>
<g >
<title>all (113 samples, 100%)</title><rect x="10.0" y="149" width="1180.0" height="15.0" fill="rgb(255,130,130)" rx="2" ry="2" />
<text  x="13.00" y="159.5" ></text>
</g>
<g >
<title>@   34:   17 MOVE_PTR (8 samples, 7.08%)</title><rect x="145.8" y="53" width="83.5" height="15.0" fill="rgb(229,92,92)" rx="2" ry="2" />
<text  x="148.75" y="63.5" >@   34:  ..</text>
</g>
<g >
<title>@   64:   11 COPY_CELL (1 samples, 0.88%)</title><rect x="511.2" y="37" width="10.5" height="15.0" fill="rgb(229,92,92)" rx="2" ry="2" />
<text  x="514.24" y="47.5" ></text>
</g>
<g >
<title>@   69:    5 LOOP (2 samples, 1.77%)</title><rect x="657.4" y="69" width="20.9" height="15.0" fill="rgb(229,92,92)" rx="2" ry="2" />
<text  x="660.43" y="79.5" ></text>
</g>
<g >
<title>@   33:    2 COPY_CELL (2 samples, 1.77%)</title><rect x="93.5" y="37" width="20.9" height="15.0" fill="rgb(229,92,92)" rx="2" ry="2" />
<text  x="96.54" y="47.5" ></text>
</g>
<g >
<title>@   34:   51 MOVE_PTR (1 samples, 0.88%)</title><rect x="229.3" y="69" width="10.4" height="15.0" fill="rgb(229,92,92)" rx="2" ry="2" />
<text  x="232.29" y="79.5" ></text>
</g>
<g >
<title>@  100:   77 LOOP (7 samples, 6.19%)</title><rect x="887.2" y="85" width="73.1" height="15.0" fill="rgb(229,92,92)" rx="2" ry="2" />
<text  x="890.17" y="95.5" >@  100: ..</text>
</g>
<g >
<title>@  101:    8 LOOP (2 samples, 1.77%)</title><rect x="887.2" y="69" width="20.9" height="15.0" fill="rgb(229,92,92)" rx="2" ry="2" />
<text  x="890.17" y="79.5" ></text>
</g>
<g >
<title>@   37:   31 LOOP (5 samples, 4.42%)</title><rect x="302.4" y="85" width="52.2" height="15.0" fill="rgb(229,92,92)" rx="2" ry="2" />
<text  x="305.39" y="95.5" >@   3..</text>
</g>
<g >
<title>@    7:   65 LOOP (113 samples, 100.00%)</title><rect x="10.0" y="117" width="1180.0" height="15.0" fill="rgb(229,92,92)" rx="2" ry="2" />
<text  x="13.00" y="127.5" >@    7:   65 LOOP</text>
</g>
<g >
<title>@    7:   75 LOOP (1 samples, 0.88%)</title><rect x="10.0" y="101" width="10.4" height="15.0" fill="rgb(229,92,92)" rx="2" ry="2" />
<text  x="13.00" y="111.5" ></text>
</g>
<g >
<title>@   76:   20 LOOP (1 samples, 0.88%)</title><rect x="688.8" y="53" width="10.4" height="15.0" fill="rgb(229,92,92)" rx="2" ry="2" />
<text  x="691.76" y="63.5" ></text>
</g>
<g >
<title>@   34:   71 LOOP (5 samples, 4.42%)</title><rect x="239.7" y="85" width="52.2" height="15.0" fill="rgb(229,92,92)" rx="2" ry="2" />
<text  x="242.73" y="95.5" >@   3..</text>
</g>
<g >
<title>@   32:   27 LOOP (15 samples, 13.27%)</title><rect x="83.1" y="85" width="156.6" height="15.0" fill="rgb(229,92,92)" rx="2" ry="2" />
<text  x="86.10" y="95.5" >@   32:   27 LOOP</text>
</g>
<g >
<title>@   37:   72 LOOP (2 samples, 1.77%)</title><rect x="302.4" y="53" width="20.9" height="15.0" fill="rgb(229,92,92)" rx="2" ry="2" />
<text  x="305.39" y="63.5" ></text>
</g>
<g >
<title>@   62:   46 SET_CONST (1 samples, 0.88%)</title><rect x="500.8" y="69" width="10.4" height="15.0" fill="rgb(229,92,92)" rx="2" ry="2" />
<text  x="503.80" y="79.5" ></text>
</g>
<g >
<title>@   44:    8 LOOP (7 samples, 6.19%)</title><rect x="417.3" y="85" width="73.1" height="15.0" fill="rgb(229,92,92)" rx="2" ry="2" />
<text  x="420.26" y="95.5" >@   44: ..</text>
</g>
<g >
<title>@   93:   73 MOVE_PTR (1 samples, 0.88%)</title><rect x="709.6" y="53" width="10.5" height="15.0" fill="rgb(229,92,92)" rx="2" ry="2" />
<text  x="712.65" y="63.5" ></text>
</g>
<g >
<title>@   12:   41 LOOP (1 samples, 0.88%)</title><rect x="20.4" y="101" width="10.5" height="15.0" fill="rgb(229,92,92)" rx="2" ry="2" />
<text  x="23.44" y="111.5" ></text>
</g>
<g >
<title>@   64:   23 MOVE_PTR (2 samples, 1.77%)</title><rect x="521.7" y="37" width="20.9" height="15.0" fill="rgb(229,92,92)" rx="2" ry="2" />
<text  x="524.68" y="47.5" ></text>
</g>
<g >
<title>@   75:   44 LOOP (1 samples, 0.88%)</title><rect x="688.8" y="85" width="10.4" height="15.0" fill="rgb(229,92,92)" rx="2" ry="2" />
<text  x="691.76" y="95.5" ></text>
</g>
<g >
<title>@   81:   27 LOOP (1 samples, 0.88%)</title><rect x="699.2" y="85" width="10.4" height="15.0" fill="rgb(229,92,92)" rx="2" ry="2" />
<text  x="702.20" y="95.5" ></text>
</g>
<g >
<title>@   81:   28 ADD_VAL (1 samples, 0.88%)</title><rect x="699.2" y="69" width="10.4" height="15.0" fill="rgb(229,92,92)" rx="2" ry="2" />
<text  x="702.20" y="79.5" ></text>
</g>
<g >
<title>@  102:   42 LOOP (14 samples, 12.39%)</title><rect x="970.7" y="85" width="146.2" height="15.0" fill="rgb(229,92,92)" rx="2" ry="2" />
<text  x="973.71" y="95.5" >@  102:   42 LOOP</text>
</g>
<g >
<title>@   96:   75 LOOP (2 samples, 1.77%)</title><rect x="730.5" y="85" width="20.9" height="15.0" fill="rgb(229,92,92)" rx="2" ry="2" />
<text  x="733.53" y="95.5" ></text>
</g>
<g >
<title>@  103:   21 COPY_CELL (1 samples, 0.88%)</title><rect x="970.7" y="37" width="10.5" height="15.0" fill="rgb(229,92,92)" rx="2" ry="2" />
<text  x="973.71" y="47.5" ></text>
</g>
<g >
<title>@   99:   38 LOOP (2 samples, 1.77%)</title><rect x="761.9" y="53" width="20.8" height="15.0" fill="rgb(229,92,92)" rx="2" ry="2" />
<text  x="764.86" y="63.5" ></text>
</g>
</g>
</svg>
